<svg width="300" height="131" viewBox="0 0 300 131" fill="none" xmlns="http://www.w3.org/2000/svg">
<path d="M19.9904 94.7383C20.8168 94.945 21.5658 95.2291 22.2373 95.5906C22.9088 95.9522 23.477 96.5204 23.9419 97.2952C24.4585 98.0184 24.8459 98.974 25.1042 100.162C25.3624 101.35 25.4916 102.874 25.4916 104.734V117.673C25.4916 120.411 25.3108 122.606 24.9492 124.259C24.6393 125.912 23.9936 127.177 23.0121 128.056C22.0824 128.934 20.791 129.528 19.1381 129.838C17.4851 130.096 15.3414 130.225 12.707 130.225H0V69.0143H12.707C15.3414 69.0143 17.4851 69.1693 19.1381 69.4792C20.791 69.7375 22.0824 70.3057 23.0121 71.1838C23.9936 72.0619 24.6393 73.3275 24.9492 74.9804C25.3108 76.5817 25.4916 78.7512 25.4916 81.4889V86.0604C25.4916 87.6617 25.285 88.9788 24.8717 90.0119C24.5101 91.045 24.0452 91.8715 23.477 92.4914C22.9605 93.1112 22.3665 93.5761 21.695 93.886C21.0751 94.196 20.5069 94.3768 19.9904 94.4284V94.7383ZM8.91043 122.554H12.707C13.5335 122.554 14.1792 122.503 14.6441 122.399C15.1606 122.244 15.5481 122.012 15.8063 121.702C16.0646 121.34 16.2454 120.85 16.3487 120.23C16.452 119.558 16.5037 118.706 16.5037 117.673V102.719C16.5037 101.014 16.297 99.8522 15.8838 99.2323C15.4706 98.5608 14.4891 98.225 12.9395 98.225H8.91043V122.554ZM8.91043 91.1742H12.9395C14.3858 91.1742 15.3414 90.8901 15.8063 90.3219C16.2712 89.7537 16.5037 88.7206 16.5037 87.2226V81.4889C16.5037 80.5591 16.452 79.7843 16.3487 79.1645C16.297 78.5446 16.1421 78.0539 15.8838 77.6923C15.6255 77.3307 15.2381 77.0983 14.7216 76.995C14.205 76.84 13.5335 76.7625 12.707 76.7625H8.91043V91.1742Z" fill="white"/>
<path d="M47.1302 130.225V116.588H39.6145V130.225H30.9365V81.1015C30.9365 78.3122 31.0915 76.0652 31.4014 74.3606C31.763 72.656 32.4087 71.3646 33.3384 70.4865C34.2682 69.5567 35.5079 68.9627 37.0576 68.7044C38.6589 68.3945 40.6992 68.2395 43.1787 68.2395C45.7614 68.2395 47.8792 68.3945 49.5322 68.7044C51.2368 69.0143 52.554 69.6342 53.4838 70.564C54.4652 71.4421 55.1367 72.7335 55.4983 74.4381C55.8599 76.091 56.0407 78.3122 56.0407 81.1015V130.225H47.1302ZM43.3336 76.2201C42.5588 76.2201 41.9131 76.2976 41.3966 76.4526C40.9317 76.5559 40.5443 76.7883 40.2343 77.1499C39.9761 77.4599 39.7953 77.9506 39.692 78.6221C39.6403 79.2419 39.6145 80.0684 39.6145 81.1015V109.305H47.1302V81.1015C47.1302 80.0684 47.0786 79.2419 46.9753 78.6221C46.872 77.9506 46.6912 77.4599 46.4329 77.1499C46.1746 76.7883 45.7872 76.5559 45.2707 76.4526C44.7541 76.2976 44.1084 76.2201 43.3336 76.2201Z" fill="white"/>
<path d="M71.2592 130.225H62.3488V69.0143H75.0558C77.6902 69.0143 79.8339 69.1693 81.4868 69.4792C83.1398 69.7375 84.4312 70.3315 85.3609 71.2613C86.3424 72.1394 86.9881 73.405 87.298 75.0579C87.6596 76.6592 87.8404 78.8029 87.8404 81.4889V87.9199C87.8404 89.5212 87.6596 90.8384 87.298 91.8715C86.9881 92.8529 86.549 93.6536 85.9808 94.2735C85.4642 94.8933 84.8702 95.3582 84.1987 95.6681C83.5788 95.9264 82.959 96.133 82.3391 96.288V96.5979C83.1656 96.8045 83.9146 97.0886 84.5861 97.4502C85.2576 97.7601 85.8258 98.2767 86.2907 98.9999C86.8073 99.6714 87.1947 100.549 87.4529 101.634C87.7112 102.719 87.8404 104.114 87.8404 105.818V130.225H78.8524V104.424C78.8524 102.771 78.6458 101.634 78.2326 101.014C77.8194 100.343 76.8379 100.007 75.2883 100.007H71.2592V130.225ZM71.2592 92.9563H75.2883C76.7346 92.9563 77.6902 92.6722 78.1551 92.104C78.62 91.5358 78.8524 90.5027 78.8524 89.0047V81.4889C78.8524 80.5075 78.8008 79.7327 78.6975 79.1645C78.6458 78.5446 78.4909 78.0539 78.2326 77.6923C77.9743 77.3307 77.5869 77.0983 77.0704 76.995C76.5538 76.84 75.8823 76.7625 75.0558 76.7625H71.2592V92.9563Z" fill="white"/>
<path d="M114.043 94.7383C114.87 94.945 115.619 95.2291 116.29 95.5906C116.962 95.9522 117.53 96.5204 117.995 97.2952C118.511 98.0184 118.899 98.974 119.157 100.162C119.415 101.35 119.544 102.874 119.544 104.734V117.673C119.544 120.411 119.364 122.606 119.002 124.259C118.692 125.912 118.046 127.177 117.065 128.056C116.135 128.934 114.844 129.528 113.191 129.838C111.538 130.096 109.394 130.225 106.76 130.225H94.0528V69.0143H106.76C109.394 69.0143 111.538 69.1693 113.191 69.4792C114.844 69.7375 116.135 70.3057 117.065 71.1838C118.046 72.0619 118.692 73.3275 119.002 74.9804C119.364 76.5817 119.544 78.7512 119.544 81.4889V86.0604C119.544 87.6617 119.338 88.9788 118.925 90.0119C118.563 91.045 118.098 91.8715 117.53 92.4914C117.013 93.1112 116.419 93.5761 115.748 93.886C115.128 94.196 114.56 94.3768 114.043 94.4284V94.7383ZM102.963 122.554H106.76C107.586 122.554 108.232 122.503 108.697 122.399C109.213 122.244 109.601 122.012 109.859 121.702C110.117 121.34 110.298 120.85 110.402 120.23C110.505 119.558 110.557 118.706 110.557 117.673V102.719C110.557 101.014 110.35 99.8522 109.937 99.2323C109.523 98.5608 108.542 98.225 106.992 98.225H102.963V122.554ZM102.963 91.1742H106.992C108.439 91.1742 109.394 90.8901 109.859 90.3219C110.324 89.7537 110.557 88.7206 110.557 87.2226V81.4889C110.557 80.5591 110.505 79.7843 110.402 79.1645C110.35 78.5446 110.195 78.0539 109.937 77.6923C109.678 77.3307 109.291 77.0983 108.774 76.995C108.258 76.84 107.586 76.7625 106.76 76.7625H102.963V91.1742Z" fill="white"/>
<path d="M142.965 130.225H125.454V69.0143H142.888V76.3751H134.365V85.2855H142.655V92.3364H134.365V122.554H142.965V130.225Z" fill="white"/>
<path d="M157.064 130.225H148.154V69.0143H160.861C163.495 69.0143 165.639 69.1693 167.292 69.4792C168.945 69.7375 170.236 70.3315 171.166 71.2613C172.148 72.1394 172.793 73.405 173.103 75.0579C173.465 76.6592 173.646 78.8029 173.646 81.4889V87.9199C173.646 89.5212 173.465 90.8384 173.103 91.8715C172.793 92.8529 172.354 93.6536 171.786 94.2735C171.269 94.8933 170.675 95.3582 170.004 95.6681C169.384 95.9264 168.764 96.133 168.144 96.288V96.5979C168.971 96.8045 169.72 97.0886 170.391 97.4502C171.063 97.7601 171.631 98.2767 172.096 98.9999C172.613 99.6714 173 100.549 173.258 101.634C173.516 102.719 173.646 104.114 173.646 105.818V130.225H164.658V104.424C164.658 102.771 164.451 101.634 164.038 101.014C163.625 100.343 162.643 100.007 161.094 100.007H157.064V130.225ZM157.064 92.9563H161.094C162.54 92.9563 163.495 92.6722 163.96 92.104C164.425 91.5358 164.658 90.5027 164.658 89.0047V81.4889C164.658 80.5075 164.606 79.7327 164.503 79.1645C164.451 78.5446 164.296 78.0539 164.038 77.6923C163.78 77.3307 163.392 77.0983 162.876 76.995C162.359 76.84 161.688 76.7625 160.861 76.7625H157.064V92.9563Z" fill="white"/>
<path d="M195.587 88.8497V81.2565C195.587 80.1717 195.535 79.2936 195.432 78.6221C195.38 77.9506 195.225 77.4599 194.967 77.1499C194.709 76.7883 194.321 76.5559 193.805 76.4526C193.288 76.2976 192.617 76.2201 191.79 76.2201C190.912 76.2201 190.215 76.2976 189.698 76.4526C189.233 76.5559 188.872 76.7883 188.614 77.1499C188.355 77.4599 188.174 77.9506 188.071 78.6221C188.02 79.2936 187.994 80.1717 187.994 81.2565V87.3001C187.994 88.5398 188.123 89.4696 188.381 90.0894C188.639 90.6576 189.285 91.2517 190.318 91.8715C191.196 92.4397 192.359 93.0854 193.805 93.8086C195.303 94.5317 196.93 95.4357 198.686 96.5204C199.978 97.3469 201.011 98.0959 201.785 98.7674C202.612 99.4389 203.206 100.188 203.568 101.014C203.981 101.841 204.239 102.822 204.342 103.959C204.497 105.095 204.575 106.516 204.575 108.22V118.06C204.575 120.901 204.394 123.174 204.032 124.879C203.723 126.583 203.103 127.901 202.173 128.83C201.243 129.709 199.952 130.277 198.299 130.535C196.646 130.845 194.502 131 191.868 131C189.337 131 187.271 130.845 185.669 130.535C184.068 130.277 182.802 129.709 181.873 128.83C180.943 127.952 180.297 126.661 179.936 124.956C179.574 123.252 179.393 120.953 179.393 118.06V105.896H188.071V118.06C188.071 119.145 188.097 120.023 188.149 120.695C188.252 121.315 188.433 121.805 188.691 122.167C188.949 122.529 189.311 122.787 189.776 122.942C190.292 123.045 190.964 123.097 191.79 123.097C193.443 123.097 194.476 122.787 194.89 122.167C195.354 121.547 195.587 120.178 195.587 118.06V108.84C195.587 107.187 195.484 105.999 195.277 105.276C195.07 104.553 194.476 103.855 193.495 103.184C192.978 102.822 192.333 102.435 191.558 102.022C190.783 101.557 189.957 101.092 189.078 100.627C188.2 100.11 187.296 99.5939 186.367 99.0773C185.488 98.5608 184.688 98.0701 183.965 97.6052C182.88 96.882 182.002 96.2105 181.33 95.5906C180.71 94.9191 180.22 94.196 179.858 93.4211C179.548 92.6463 179.342 91.7682 179.238 90.7868C179.135 89.8053 179.083 88.5914 179.083 87.1451V81.2565C179.083 78.4155 179.238 76.1427 179.548 74.4381C179.91 72.7335 180.53 71.4163 181.408 70.4865C182.338 69.5567 183.603 68.9627 185.204 68.7044C186.857 68.3945 189.001 68.2395 191.635 68.2395C194.27 68.2395 196.388 68.3945 197.989 68.7044C199.642 68.9627 200.933 69.5567 201.863 70.4865C202.793 71.4163 203.413 72.7335 203.723 74.4381C204.084 76.1427 204.265 78.4155 204.265 81.2565V88.8497H195.587Z" fill="white"/>
<path d="M236.074 130.225H227.086V96.7529H219.338V130.225H210.427V69.0143H219.338V89.2371H227.086V69.0143H236.074V130.225Z" fill="white"/>
<path d="M267.608 118.06C267.608 120.901 267.427 123.174 267.066 124.879C266.756 126.583 266.11 127.901 265.129 128.83C264.199 129.709 262.908 130.277 261.255 130.535C259.602 130.845 257.458 131 254.824 131C252.189 131 250.046 130.845 248.393 130.535C246.74 130.277 245.448 129.709 244.519 128.83C243.589 127.901 242.943 126.583 242.582 124.879C242.272 123.174 242.117 120.901 242.117 118.06V81.1015C242.117 78.2605 242.272 76.0135 242.582 74.3606C242.943 72.656 243.589 71.3646 244.519 70.4865C245.448 69.5567 246.74 68.9627 248.393 68.7044C250.046 68.3945 252.189 68.2395 254.824 68.2395C257.458 68.2395 259.602 68.3945 261.255 68.7044C262.908 68.9627 264.199 69.5567 265.129 70.4865C266.11 71.3646 266.756 72.656 267.066 74.3606C267.427 76.0135 267.608 78.2605 267.608 81.1015V118.06ZM258.62 81.1015C258.62 80.0684 258.569 79.2419 258.465 78.6221C258.414 77.9506 258.233 77.4599 257.923 77.1499C257.665 76.7883 257.277 76.5559 256.761 76.4526C256.296 76.2976 255.676 76.2201 254.901 76.2201C253.248 76.2201 252.189 76.5301 251.724 77.1499C251.26 77.7698 251.027 79.087 251.027 81.1015V118.06C251.027 119.145 251.053 120.023 251.105 120.695C251.208 121.315 251.389 121.805 251.647 122.167C251.957 122.529 252.344 122.787 252.809 122.942C253.326 123.045 253.971 123.097 254.746 123.097C255.573 123.097 256.244 123.045 256.761 122.942C257.277 122.787 257.665 122.529 257.923 122.167C258.233 121.754 258.414 121.237 258.465 120.617C258.569 119.946 258.62 119.094 258.62 118.06V81.1015Z" fill="white"/>
<path d="M282.594 107.058V130.225H273.684V69.0143H286.391C289.025 69.0143 291.169 69.1693 292.822 69.4792C294.475 69.7375 295.766 70.3057 296.696 71.1838C297.678 72.0619 298.323 73.3275 298.633 74.9804C298.995 76.5817 299.176 78.7512 299.176 81.4889V94.5834C299.176 97.3211 298.995 99.5164 298.633 101.169C298.272 102.822 297.6 104.088 296.619 104.966C295.689 105.844 294.397 106.412 292.744 106.671C291.092 106.929 288.974 107.058 286.391 107.058H282.594ZM282.594 76.7625V99.8522H286.391C287.166 99.8522 287.811 99.8005 288.328 99.6972C288.845 99.5422 289.232 99.284 289.49 98.9224C289.749 98.5608 289.929 98.0701 290.033 97.4502C290.136 96.7787 290.188 95.9264 290.188 94.8933V81.4889C290.188 80.5075 290.136 79.7068 290.033 79.087C289.981 78.4671 289.826 78.0022 289.568 77.6923C289.309 77.3307 288.922 77.0983 288.405 76.995C287.941 76.84 287.269 76.7625 286.391 76.7625H282.594Z" fill="white"/>
<g filter="url(#filter0_d_128_149)">
<path d="M72.359 80.6218L71.8661 80.3753C71.2911 79.3895 71.0036 78.3627 71.0036 77.2947C71.0036 75.4053 71.7018 73.6391 73.0984 71.9961C74.4949 70.3531 76.2201 68.8333 78.2738 67.4368C80.3275 65.9581 82.3813 64.6026 84.435 63.3704C86.4888 62.056 88.2139 60.8648 89.6104 59.7969C91.007 58.6468 91.7052 57.5788 91.7052 56.593C91.7052 55.6894 91.1302 55.0322 89.9801 54.6214C88.9122 54.2107 88.0085 53.8821 87.2692 53.6356L86.7763 52.7731V52.5266H86.2834L86.4066 52.6498V52.7731C85.5851 53.0195 84.6815 53.1427 83.6957 53.1427L82.4634 52.6498H82.217V53.266L81.6009 53.1427L81.108 52.6498L80.7383 53.1427V53.266L80.6151 53.1427C80.4508 53.0606 80.1222 53.0195 79.6293 53.0195C79.3007 53.0195 78.8899 53.0606 78.397 53.1427C77.9863 53.2249 77.5755 53.266 77.1648 53.266L77.288 52.5266L76.9183 52.6498L75.6861 52.4034L75.8093 52.8963H75.6861V52.7731L75.07 52.5266L74.8235 52.7731L73.7145 51.2944H73.8377L73.7145 51.0479C73.6323 51.0479 73.427 50.9658 73.0984 50.8015C72.7698 50.6372 72.5233 50.555 72.359 50.555C71.9483 50.555 71.5375 50.7193 71.1268 51.0479C70.7982 51.2944 70.5107 51.4997 70.2642 51.664L70.141 52.6498L69.4016 52.8963C69.3195 53.307 69.1963 53.7589 69.032 54.2518C68.8677 54.7447 68.7444 55.2376 68.6623 55.7304C68.0051 56.3055 67.43 57.4967 66.9372 59.304C66.5264 61.1112 66.1567 63.1239 65.8281 65.342C65.4995 67.4778 65.2531 69.5316 65.0888 71.5032C65.0066 73.4748 64.9656 74.9535 64.9656 75.9393L65.7049 77.6644H65.8281L66.6907 78.7734V78.8966L66.4443 79.1431L63.6101 78.7734C62.6243 78.1162 61.6796 77.0072 60.7759 75.4464C59.9544 73.8855 59.4205 72.5711 59.174 71.5032L58.8043 71.2567V70.5174C58.065 69.4494 57.6953 68.4226 57.6953 67.4368L58.9276 64.1097L58.065 62.8775L59.174 60.7826V60.413H58.3114L57.6953 60.7826V60.6594L58.065 59.9201C57.9007 58.8521 58.1061 57.661 58.6811 56.3466C59.3383 55.0322 59.9955 53.7178 60.6527 52.4034C61.3921 51.0069 61.7617 49.7746 61.7617 48.7067C62.4189 48.0495 62.9118 47.3512 63.2404 46.6118C63.569 45.7903 63.8976 44.9689 64.2262 44.1474C65.8692 40.6971 67.8408 37.4522 70.141 34.4126C72.5233 31.3731 74.8646 28.3336 77.1648 25.294V24.9244C76.3433 24.9244 74.7003 25.1297 72.2358 25.5405C69.8535 25.9512 67.1014 26.4852 63.9798 27.1424C60.9402 27.7996 57.9418 28.58 54.9844 29.4837C52.1091 30.3052 49.6857 31.2088 47.7141 32.1946C45.7426 33.0982 44.7157 34.0019 44.6335 34.9055L45.4961 35.2752C46.0712 34.9466 46.6873 34.7823 47.3445 34.7823C48.0017 34.7002 48.6178 34.6591 49.1928 34.6591L50.918 34.043L50.7948 34.2894C48.9875 35.5217 47.3445 36.836 45.8658 38.2326C44.3871 39.6291 42.9495 41.1078 41.5529 42.6687L40.6904 42.9151L40.3207 43.7777L38.842 44.0241L38.7188 44.2706L38.842 46.4886L34.7756 44.3938C34.447 43.4902 33.9541 42.6687 33.2969 41.9293C32.7218 41.19 32.4343 40.3274 32.4343 39.3416C34.4881 36.795 36.8293 34.6591 39.4581 32.9339C42.1691 31.2088 44.9621 29.689 47.8374 28.3746C50.7948 27.0602 53.67 25.7459 56.4631 24.4315V24.6779C56.956 24.8422 57.4489 24.9244 57.9418 24.9244C58.599 24.9244 59.2151 24.8011 59.7901 24.5547C60.4473 24.2261 61.1045 23.9796 61.7617 23.8153V24.0618C62.5832 23.8975 63.3636 23.7332 64.103 23.5689C64.8423 23.3224 65.5817 23.0349 66.321 22.7063V22.9528L68.1694 22.3366V22.2134L68.9087 22.3366L68.6623 22.2134C68.6623 22.0491 68.7444 22.008 68.9087 22.0902C69.073 22.1723 69.1552 22.2545 69.1552 22.3366L69.7713 22.2134L70.141 21.5973L70.7571 21.8437L70.5107 21.5973L70.7571 21.7205L70.8803 21.8437H72.7287L73.7145 21.4741L73.8377 21.1044L77.1648 21.2276L77.288 21.1044L78.397 20.6115C78.9721 20.6115 79.506 20.6115 79.9989 20.6115C80.574 20.5294 81.149 20.4883 81.7241 20.4883C82.3813 19.8311 82.9152 19.0507 83.326 18.147C83.8189 17.2434 84.5993 16.7915 85.6673 16.7915C86.7352 16.7915 87.721 17.038 88.6246 17.5309C89.5283 18.0238 90.5141 18.2702 91.582 18.2702C91.8285 18.7631 92.4857 19.256 93.5536 19.7489C94.7037 20.1597 96.0181 20.5294 97.4968 20.8579C98.9755 21.1044 100.372 21.3098 101.686 21.4741C103.001 21.5562 103.904 21.5973 104.397 21.5973L109.696 23.1992L110.189 23.076C110.928 23.076 111.955 23.5689 113.27 24.5547C114.584 25.5405 115.857 26.6084 117.089 27.7585C118.404 28.9086 119.349 29.7712 119.924 30.3462C120.088 30.9213 120.252 31.5374 120.417 32.1946C120.581 32.8518 120.868 33.4679 121.279 34.043C120.951 37.1646 120.334 39.5059 119.431 41.0667C118.609 42.5454 117.377 43.6134 115.734 44.2706C114.173 44.9278 112.037 45.626 109.326 46.3654L107.724 46.2422V46.8583H107.478L106.985 46.3654L102.056 47.8441V47.1047C100.577 48.1727 99.4273 48.7067 98.6058 48.7067C97.8665 48.7067 96.6342 48.7888 94.9091 48.9531V48.7067H94.0465L92.691 49.3228L91.7052 48.9531L90.473 49.0763L90.3498 49.6925C92.0749 50.5961 93.4715 51.4176 94.5394 52.1569C95.6074 52.8141 96.3878 53.7178 96.8807 54.8679C97.4557 55.9358 97.7432 57.5377 97.7432 59.6736C97.7432 60.3308 97.4968 60.9469 97.0039 61.522C96.5931 62.097 96.3056 62.7132 96.1413 63.3704L93.4304 66.0813L93.1839 65.9581C91.6231 66.8617 90.0212 67.4778 88.3782 67.8064C86.8173 68.135 85.2154 68.4226 83.5724 68.669L83.2028 67.9297C81.9705 68.3404 80.574 69.0387 79.0131 70.0245C77.5344 71.0103 76.2201 72.1604 75.07 73.4748C74.002 74.7892 73.468 76.2268 73.468 77.7876C73.0573 78.1162 72.7698 78.527 72.6055 79.0199C72.4412 79.5949 72.359 80.1289 72.359 80.6218ZM73.2216 48.8299C74.2074 48.8299 75.3986 48.5834 76.7951 48.0905C78.2738 47.5976 79.506 47.1869 80.4918 46.8583L80.6151 46.4886L83.9421 45.7493V45.626H84.435L84.8047 45.1332C85.9548 44.9689 87.1049 44.7635 88.255 44.517C89.4051 44.2706 90.5141 44.1474 91.582 44.1474C93.225 43.408 94.9502 43.0383 96.7575 43.0383C97.6611 42.6276 98.6058 42.3401 99.5916 42.1758C100.66 41.9293 101.645 41.6829 102.549 41.4364L102.795 41.19C104.028 40.7792 105.219 40.3685 106.369 39.9577C107.601 39.4648 108.792 38.9309 109.942 38.3558L109.696 38.2326L113.639 34.2894L113.762 32.0714C113.434 31.332 112.982 30.5516 112.407 29.7301C111.914 28.8265 111.175 28.3336 110.189 28.2514L110.312 28.3746C108.751 27.7996 107.19 27.0602 105.63 26.1566C104.069 25.1708 102.385 24.6368 100.577 24.5547V24.6779H100.208C99.7148 24.4315 99.3041 24.3082 98.9755 24.3082C98.6469 24.3082 98.3183 24.3493 97.9897 24.4315C97.6611 24.5136 97.2914 24.5547 96.8807 24.5547L95.7717 23.8153H94.293C93.3893 23.8153 92.4857 23.8153 91.582 23.8153C90.7605 23.7332 89.898 23.651 88.9943 23.5689C87.9264 24.5547 86.5709 25.9512 84.9279 27.7585C83.3671 29.4837 81.8473 31.2909 80.3686 33.1804C78.9721 34.9877 77.9452 36.5896 77.288 37.9861V39.2184C76.1379 39.7113 75.2343 40.7792 74.5771 42.4222C74.002 44.0652 73.3037 45.3796 72.4822 46.3654L72.359 47.228L72.6055 47.8441L72.4822 47.9673L73.2216 48.8299ZM53.0128 33.7965L53.3825 32.9339L53.6289 33.1804L53.7521 33.6733L53.6289 33.7965H53.0128Z" fill="white"/>
<path d="M110.414 75.0767C109.675 75.0767 108.771 74.5838 107.703 73.598C106.717 72.6122 105.896 71.8728 105.239 71.3799C105.074 70.312 104.787 69.3673 104.376 68.5458C103.965 67.6421 103.76 66.6974 103.76 65.7116C103.76 64.2329 104.294 62.5078 105.362 60.5362C106.512 58.4825 107.95 56.4698 109.675 54.4982C111.482 52.5266 113.289 50.8836 115.097 49.5692C116.986 48.2548 118.67 47.5976 120.149 47.5976V47.3512C121.299 47.5976 122.367 48.337 123.353 49.5692C124.421 50.8015 124.955 51.9516 124.955 53.0195C124.955 54.0053 124.339 55.0322 123.106 56.1001C121.956 57.0859 120.519 58.0306 118.793 58.9343C117.15 59.7558 115.507 60.413 113.864 60.9059C112.304 61.3988 111.071 61.6452 110.168 61.6452V61.8917C109.593 62.7953 109.018 63.9454 108.443 65.342C107.95 66.6563 107.703 67.8886 107.703 69.0387C107.703 69.4494 107.826 69.9013 108.073 70.3942C108.648 70.8049 109.387 71.0103 110.291 71.0103C111.195 70.9281 111.934 70.9281 112.509 71.0103L112.632 71.1335L113.002 70.5174C114.07 70.4352 115.097 70.1888 116.082 69.778V69.0387H116.822V68.669L117.315 68.7922C117.725 68.6279 118.013 68.4636 118.177 68.2993C118.424 68.0529 118.711 67.8475 119.04 67.6832L119.779 68.0529V67.9297L121.997 65.8349H122.12L122.49 66.0813V65.9581C123.558 64.9723 124.708 64.0686 125.94 63.2471C127.173 62.4256 128.076 61.3577 128.651 60.0433L130.007 59.0575L130.253 59.304C130.253 59.879 130.048 60.413 129.637 60.9059C129.226 61.3988 128.734 61.7274 128.158 61.8917C127.501 63.4525 126.515 64.7669 125.201 65.8349C123.969 66.9028 122.696 68.0118 121.381 69.1619H121.011L120.888 69.778C119.327 70.846 117.684 71.9961 115.959 73.2283C114.316 74.4606 112.468 75.0767 110.414 75.0767ZM112.755 59.304H113.002V59.0575C113.577 58.8932 114.563 58.4003 115.959 57.5788C117.438 56.7573 118.835 55.8947 120.149 54.9911C121.463 54.0053 122.162 53.307 122.244 52.8963H122.367L122.244 52.2802L122.367 51.664C122.285 51.664 122.12 51.664 121.874 51.664C121.628 51.5819 121.422 51.5408 121.258 51.5408C120.19 52.2802 119.122 52.9784 118.054 53.6356C116.986 54.2928 115.918 54.95 114.85 55.6072H114.604L114.481 56.593C113.988 56.9216 113.618 57.3324 113.372 57.8253C113.125 58.236 112.92 58.7289 112.755 59.304ZM131.486 58.9343L130.746 58.6878L130.623 57.9485L131.855 57.5788L131.978 57.9485L131.486 58.9343Z" fill="white"/>
<path d="M143.458 72.9819C142.225 72.9819 141.281 72.489 140.623 71.5032L137.789 70.1477C137.461 69.4084 137.296 68.5047 137.296 67.4368C137.296 65.7116 137.707 63.8633 138.529 61.8917C139.432 59.8379 140.295 58.1128 141.116 56.7162C140.541 56.3876 140.048 55.9769 139.638 55.484C139.227 54.9911 138.816 54.4982 138.405 54.0053L138.036 53.7589C137.707 54.0875 137.337 54.375 136.927 54.6214C136.516 54.8679 136.105 55.0322 135.694 55.1143C134.955 55.8537 133.887 57.0859 132.491 58.8111C131.094 60.4541 129.574 62.1792 127.931 63.9865C126.288 65.7116 124.686 67.2314 123.126 68.5458C121.647 69.8602 120.456 70.5174 119.552 70.5174L119.429 70.2709C119.511 69.778 119.881 69.2441 120.538 68.669C121.277 68.0118 121.811 67.5189 122.14 67.1903C122.304 66.5331 122.715 65.9581 123.372 65.4652C124.029 64.9723 124.645 64.6026 125.22 64.3562H125.344L126.083 63.2471L126.699 62.8775L126.576 62.7542L127.438 62.1381C127.603 61.7274 127.849 61.3577 128.178 61.0291C128.506 60.7005 128.794 60.3719 129.04 60.0433V59.7969C130.848 58.4003 132.491 56.8805 133.969 55.2376C135.53 53.5124 137.132 51.8283 138.775 50.1854L138.898 50.0621L138.775 49.3228C138.775 48.4191 138.98 47.4333 139.391 46.3654C139.884 45.2153 140.418 44.3527 140.993 43.7777C141.568 42.9562 142.266 42.0936 143.088 41.19C143.992 40.2042 144.977 39.7113 146.045 39.7113C146.867 39.7113 147.36 40.122 147.524 40.9435C147.688 41.6829 147.77 42.3401 147.77 42.9151C147.77 44.9689 147.236 46.5708 146.168 47.7209C145.101 48.7888 143.992 49.6103 142.841 50.1854C141.773 50.7604 141.24 51.3765 141.24 52.0337L143.211 52.8963L143.95 52.2802L144.074 52.4034H144.32C144.813 52.1569 145.306 51.9516 145.799 51.7873C146.292 51.5408 146.826 51.4176 147.401 51.4176C147.894 51.4176 148.387 51.5819 148.879 51.9105C149.372 52.1569 149.783 52.4034 150.112 52.6498L150.235 53.7589C150.317 54.4982 149.988 55.3197 149.249 56.2234C148.592 57.0448 147.77 58.0306 146.785 59.1807C145.799 60.2487 144.936 61.5631 144.197 63.1239C143.458 64.6026 143.088 66.3277 143.088 68.2993C143.088 68.7922 143.17 69.3262 143.334 69.9013C143.581 70.3942 144.033 70.6406 144.69 70.6406C145.676 70.6406 146.785 70.2709 148.017 69.5316C149.249 68.7922 150.481 67.9707 151.714 67.0671C152.946 66.0813 153.973 65.342 154.794 64.8491L155.287 65.4652C155.287 66.0402 154.794 66.7385 153.808 67.56C152.823 68.3815 151.631 69.203 150.235 70.0245C148.838 70.846 147.483 71.5442 146.168 72.1193C144.936 72.6943 144.033 72.9819 143.458 72.9819Z" fill="white"/>
<path d="M170.986 43.408C170.739 43.408 170.082 43.3259 169.014 43.1616C168.028 42.9151 167.535 42.6276 167.535 42.299C167.535 41.0667 168.152 40.1631 169.384 39.5881C170.698 39.013 171.766 38.438 172.588 37.8629H172.834C173.984 36.9593 175.34 36.3431 176.9 36.0146C178.543 35.686 180.063 35.4806 181.46 35.3984L181.337 35.5217C179.776 36.0145 178.379 36.9182 177.147 38.2326C175.915 39.4648 174.765 40.656 173.697 41.8061C172.711 42.874 171.807 43.408 170.986 43.408ZM155.09 77.6644L153.118 74.8302C153.036 74.2552 152.913 73.7212 152.748 73.2283C152.584 72.6533 152.502 72.0782 152.502 71.5032C152.502 70.7638 152.543 70.0245 152.625 69.2851C152.707 68.5458 152.79 67.8064 152.872 67.0671L153.734 64.9723L153.611 64.8491C154.022 63.8633 154.433 62.5899 154.843 61.0291C155.254 59.4683 155.747 57.9074 156.322 56.3466C156.979 54.7036 157.76 53.3481 158.663 52.2802C159.567 51.1301 160.676 50.555 161.99 50.555C162.894 50.555 163.921 50.8836 165.071 51.5408C166.221 52.198 166.796 53.0606 166.796 54.1285C166.796 54.5393 166.467 55.2786 165.81 56.3466C165.235 57.4145 164.537 58.6057 163.715 59.9201C162.894 61.1523 162.072 62.2613 161.251 63.2471C160.512 64.1508 159.978 64.6848 159.649 64.8491C158.91 66.1635 157.883 67.6832 156.568 69.4084C155.254 71.1335 154.597 72.7354 154.597 74.2141C154.597 74.7892 154.679 75.3231 154.843 75.816C155.09 76.3089 155.213 76.8429 155.213 77.4179L155.09 77.6644Z" fill="white"/>
<path d="M166.578 76.6786C165.593 75.9393 165.1 74.9535 165.1 73.7212C165.1 72.8176 165.182 71.955 165.346 71.1335C165.593 70.2299 165.757 69.3262 165.839 68.4226H165.962C168.591 61.1112 171.959 54.4571 176.067 48.4602C180.174 42.3811 184.857 36.5485 190.114 30.9624C190.032 30.3873 190.443 29.5247 191.347 28.3746C192.332 27.2245 193.4 26.0744 194.55 24.9244C195.783 23.7743 196.645 23.0349 197.138 22.7063C197.631 22.7063 198.37 22.9117 199.356 23.3224C200.342 23.7332 201.246 24.2261 202.067 24.8011C202.889 25.294 203.299 25.828 203.299 26.403C203.299 26.9781 202.848 28.005 201.944 29.4837C201.04 30.8802 200.013 32.2357 198.863 33.5501C197.795 34.7823 196.892 35.4395 196.152 35.5217V34.1662L195.413 34.5359V34.4126L194.674 33.7965C194.263 34.3716 193.729 34.9055 193.072 35.3984C192.497 35.8092 191.757 36.0146 190.854 36.0146V36.261L190.361 37.1236H190.114V37.7397H189.498C188.348 37.7397 187.403 38.1504 186.664 38.9719V40.081L187.034 40.2042V40.081L187.65 39.5881L187.773 39.7113C186.952 41.765 185.76 43.7366 184.2 45.626C182.721 47.5155 181.201 49.4049 179.64 51.2944C178.162 53.1838 176.97 55.2376 176.067 57.4556C175.492 57.8663 174.752 58.6468 173.849 59.7969C173.027 60.8648 172.288 62.0149 171.631 63.2471C170.973 64.3972 170.645 65.3009 170.645 65.9581C170.645 66.2867 170.645 66.5742 170.645 66.8206C170.645 67.0671 170.686 67.3546 170.768 67.6832V67.56C172.904 65.8349 174.383 64.1919 175.204 62.631C176.026 60.988 176.601 59.5915 176.929 58.4414C177.34 57.2091 177.915 56.3055 178.654 55.7304C179.394 55.0733 180.79 54.8679 182.844 55.1143V54.9911C183.666 54.2518 184.651 53.3481 185.801 52.2802C186.952 51.2122 188.143 50.2675 189.375 49.446C190.689 48.6245 191.881 48.2138 192.949 48.2138C193.113 48.2138 193.318 48.2959 193.565 48.4602C193.893 48.5424 194.099 48.6245 194.181 48.7067L195.043 49.9389C195.043 50.6783 194.756 51.4176 194.181 52.1569C193.606 52.8141 193.113 53.3892 192.702 53.8821H192.456V54.375L185.555 60.1665C185.391 60.4951 185.309 60.8237 185.309 61.1523C185.309 61.8917 185.514 62.8364 185.925 63.9865C186.335 65.0544 186.911 66.0402 187.65 66.9439C188.471 67.7654 189.334 68.1761 190.238 68.1761H191.716L192.949 67.1903V67.0671L193.318 67.1903L194.92 66.3278L195.043 66.451C194.797 67.2725 194.14 68.2583 193.072 69.4084C192.004 70.5585 190.813 71.5853 189.498 72.489C188.266 73.3105 187.198 73.7212 186.294 73.7212C184.651 73.7212 183.378 73.1872 182.474 72.1193C181.571 71.0513 180.873 69.8191 180.38 68.4226C179.969 66.9439 179.599 65.6706 179.271 64.6026C178.942 63.5347 178.531 63.0007 178.038 63.0007C177.381 63.0007 176.724 63.4525 176.067 64.3562C175.41 65.2598 174.958 65.9581 174.711 66.451C174.301 66.7796 173.89 67.1492 173.479 67.56C173.068 67.9707 172.658 68.3815 172.247 68.7922H172L170.891 69.9013L171.138 70.1477L170.152 71.3799L170.522 71.9961H170.152L169.413 73.2283V73.7212H169.289L168.673 73.2283V73.598H168.55L169.043 74.0909L168.18 74.707L166.825 75.9393L166.702 76.6786H166.578ZM184.939 59.304H185.185C185.76 58.8932 186.5 58.3182 187.403 57.5788C188.307 56.7573 189.129 55.8947 189.868 54.9911C190.689 54.0875 191.1 53.307 191.1 52.6498L190.73 51.7873L190.607 52.0337C190.196 52.198 189.498 52.5677 188.512 53.1427C187.609 53.6356 187.116 54.1696 187.034 54.7447L186.294 54.375L186.048 54.9911L185.925 54.8679C185.185 55.3608 184.816 56.1001 184.816 57.0859C184.816 57.4967 184.816 57.8663 184.816 58.1949C184.898 58.5235 184.939 58.8932 184.939 59.304Z" fill="white"/>
<path d="M201.168 33.9197L200.798 32.9339C201.209 32.441 201.62 31.9892 202.031 31.5785C202.523 31.0856 203.057 30.6748 203.632 30.3462L204.249 30.223C205.563 29.0729 206.754 27.5531 207.822 25.6637C208.89 23.6921 210.081 22.2956 211.396 21.4741L211.519 20.2418C211.683 19.8311 211.888 19.5025 212.135 19.256C212.464 19.0096 212.792 18.8042 213.121 18.6399C213.039 18.2292 212.751 17.9006 212.258 17.6541C211.847 17.4077 211.478 17.2434 211.149 17.1612C211.149 16.5862 211.313 15.8057 211.642 14.82C212.053 13.8342 212.546 12.9716 213.121 12.2322C213.778 11.4107 214.435 11 215.092 11C215.75 11 216.694 11.0821 217.926 11.2464C219.159 11.4107 220.35 11.6572 221.5 11.9858C222.732 12.3144 223.513 12.7662 223.841 13.3413C223.348 14.6557 222.65 15.8879 221.746 17.038C220.925 18.1881 219.816 19.0507 218.419 19.6257L217.68 20.8579L216.694 21.4741L216.201 22.0902L215.708 21.967L214.23 22.7063L213.983 23.076L214.476 23.4457V23.8153C214.476 24.3904 214.148 24.719 213.49 24.8011C212.915 24.8011 212.422 24.7601 212.012 24.6779L210.903 25.294L211.272 26.0334L210.533 26.2798L210.04 25.7869H209.424L208.561 26.0334L209.67 27.1424C209.424 28.2925 208.931 29.1551 208.192 29.7301L206.96 30.223L206.097 29.8533L205.85 30.7159L204.988 30.8391L204.618 30.223L204.372 30.7159L204.988 31.7017V32.9339L204.372 33.0572L202.154 32.1946L201.168 33.9197Z" fill="white"/>
<path d="M217.145 81.4844C216.652 80.745 216.405 80.0057 216.405 79.2663C216.405 78.6913 216.529 78.1573 216.775 77.6644C216.939 77.1715 217.145 76.7197 217.391 76.3089H217.514L217.391 76.1857C217.966 75.3642 218.87 74.2963 220.102 72.9819C221.417 71.6675 222.813 70.4763 224.292 69.4084C225.77 68.3404 226.962 67.7654 227.865 67.6832L228.605 67.1903C229.015 66.5331 229.632 65.917 230.453 65.342C231.357 64.6848 232.137 64.1508 232.794 63.74L233.534 63.8633L233.41 63.3704L233.78 63.1239L233.41 61.8917C232.589 61.5631 231.521 61.1523 230.207 60.6594C228.974 60.1665 227.824 59.5504 226.756 58.8111C225.77 57.9896 225.278 57.0448 225.278 55.9769C225.278 55.1554 226.017 54.0053 227.496 52.5266C228.974 51.0479 230.741 49.5692 232.794 48.0905C234.93 46.5297 236.943 45.2153 238.832 44.1474C240.804 43.0794 242.2 42.5454 243.022 42.5454C244.09 42.1347 244.87 41.4775 245.363 40.5739C245.856 39.6702 246.308 38.8487 246.719 38.1094C247.212 37.2879 247.869 36.8771 248.69 36.8771C249.758 36.8771 250.662 37.4111 251.401 38.479C252.223 39.547 252.798 40.4917 253.126 41.3132C253.044 41.6418 252.798 41.9293 252.387 42.1758C252.058 42.4222 251.812 42.7508 251.648 43.1616C250.662 43.9831 249.84 45.0099 249.183 46.2422C248.608 47.3923 248.033 48.5424 247.458 49.6925L245.24 50.9247L244.87 50.4318H244.747C244.418 50.8426 244.09 51.2122 243.761 51.5408C243.433 51.8694 243.186 52.2391 243.022 52.6498C242.693 52.9784 242.365 53.4713 242.036 54.1285C241.79 54.7036 241.42 55.0322 240.927 55.1143L240.804 54.8679C241.215 53.5535 241.625 52.2391 242.036 50.9247C242.447 49.5282 242.899 48.1727 243.392 46.8583L243.638 46.7351L243.884 44.8867C243.063 44.8867 242.283 45.0921 241.543 45.5028C240.804 45.9136 239.982 46.0779 239.079 45.9957C238.75 46.2422 238.175 46.7351 237.354 47.4744C236.614 48.2138 235.875 48.871 235.136 49.446C234.396 50.0211 233.821 50.3497 233.41 50.4318C232.917 51.3354 232.178 52.198 231.192 53.0195C230.289 53.841 229.837 54.8268 229.837 55.9769C229.837 56.4698 230.083 56.7984 230.576 56.9627C231.069 57.0448 231.521 57.0859 231.932 57.0859V57.8253L232.178 57.702L234.15 58.1949L234.519 57.8253C235.587 58.0717 236.902 58.4825 238.463 59.0575C240.106 59.5504 241.543 60.2487 242.775 61.1523C244.09 62.056 244.747 63.2471 244.747 64.7258C244.747 65.3009 244.624 65.8759 244.377 66.451C244.131 67.026 243.802 67.6011 243.392 68.1761L241.42 70.1477L238.339 69.9013C237.764 70.312 236.779 70.6817 235.382 71.0103C233.985 71.2567 232.671 71.5032 231.439 71.7496C230.289 71.9961 229.714 72.2836 229.714 72.6122L228.605 71.6264C228.194 72.3657 227.578 72.7354 226.756 72.7354C225.935 72.7354 225.113 72.7354 224.292 72.7354C223.552 72.7354 222.69 73.1872 221.704 74.0909C220.8 74.9945 219.979 75.9803 219.24 77.0483C218.5 78.1984 218.048 79.1431 217.884 79.8824L217.145 81.4844Z" fill="white"/>
</g>
<defs>
<filter id="filter0_d_128_149" x="20.4343" y="0" width="250.692" height="100.484" filterUnits="userSpaceOnUse" color-interpolation-filters="sRGB">
<feFlood flood-opacity="0" result="BackgroundImageFix"/>
<feColorMatrix in="SourceAlpha" type="matrix" values="0 0 0 0 0 0 0 0 0 0 0 0 0 0 0 0 0 0 127 0" result="hardAlpha"/>
<feOffset dx="3" dy="4"/>
<feGaussianBlur stdDeviation="7.5"/>
<feComposite in2="hardAlpha" operator="out"/>
<feColorMatrix type="matrix" values="0 0 0 0 0 0 0 0 0 0 0 0 0 0 0 0 0 0 0.81 0"/>
<feBlend mode="normal" in2="BackgroundImageFix" result="effect1_dropShadow_128_149"/>
<feBlend mode="normal" in="SourceGraphic" in2="effect1_dropShadow_128_149" result="shape"/>
</filter>
</defs>
</svg>
