<?xml version="1.0" encoding="utf-8"?>
<!-- Generator: Adobe Illustrator 24.3.0, SVG Export Plug-In . SVG Version: 6.00 Build 0)  -->
<svg version="1.1" id="Layer_1" xmlns="http://www.w3.org/2000/svg" xmlns:xlink="http://www.w3.org/1999/xlink" x="0px" y="0px"
	 viewBox="0 0 300 131" style="enable-background:new 0 0 300 131;" xml:space="preserve">
<style type="text/css">
	.st0{fill:#FFFFFF;}
</style>
<g>
	<path d="M294.7,67.3c-0.7-3.4-2.2-6.2-4.5-8.3c-2.2-2-4.9-3.3-8.1-3.8c-2.1-0.4-4.5-0.6-7.4-0.6c0,0-29.2-0.1-29.7-0.1
		c0,0,5.2-4.1,7.1-8.8c3-7.6,0.7-10.6,0.7-10.6c-13.9-18.9-41.9,2.2-43,16.7c0,1,0.1,1.9,0.3,2.8h-12v-1.1c1.5-2.2,2.3-4.6,2.3-7.1
		v-2.4c0,0,16.1-12.5,22.5-22.1c1.3-1.7,2.4-3.6,3.1-5.7v0c1-2.5,0.7-5.4-0.6-7.7l0,0c-1.5-2.7-4.1-4.5-7.6-5.5
		c-1.4-0.4-3-0.7-4.5-0.9c-1.6-0.2-2.8-0.3-3.8-0.3c-2,0-5.8,0.6-8.9,4.5l-0.1,0.1c-1,1.3-1.9,2.8-2.6,4.4l-0.1,0.3l-0.1,0.3
		c-0.2,0.6-0.3,1.1-0.5,1.7c-1.5-0.5-2.8-0.7-4.1-0.7h-0.4c-11.2,0.8-13.3,10.2-13.9,11.5l-0.5,0c-15.9-1.7-20.7,9.9-21.2,14
		c-0.1-0.6-0.2-1.2-0.3-1.8c-1-4.9-5.2-8.3-10.3-8.3c-3.5,0-6.9,1.5-9.4,4.3c-0.8,0.9-1.6,1.8-2.3,2.7c-1,1.2-1.9,2.7-2.7,4.4
		c-0.1-0.1-0.2-0.3-0.3-0.4c0.6-1.8,1-3.9,1.2-6.2l0.1-0.7c0.2-1.7-0.3-10-11-16.1c-12.6-7.3-23.4-8.3-29-8.8C92.7,7,92.1,7,91.8,7
		c-2,0-8.1,0.6-12.5,1.1c-3.3,0.4-19,3.2-34.5,15l-0.1,0.1c-3.2,2.1-6,4.7-8.5,7.7l0,0c-1.3,1.6-2,3.6-2,5.7v0
		c-0.7,8.5,4.9,11.6,6.7,12.5l9.3,4.8c-1.6,0.1-3,0.2-4.3,0.5c-2.6,0.5-5,1.5-6.9,3c-1.8-1.2-3.9-2-6.2-2.3
		c-2.1-0.4-4.5-0.6-7.4-0.6H4.6v74c0,0,114.2-0.6,114.3-0.6l61.7,0.6c0.2,0,15.9,0,16.1,0h41c0.3,0,42.6,0,42.6,0v-21.4
		c0.5-0.1,1.1-0.1,1.6-0.2c3.3-0.5,6.1-1.8,8.3-3.9c2.3-2.1,3.8-4.9,4.6-8.2c0.5-2.2,0.7-4.8,0.7-8V75.1
		C295.4,71.9,295.2,69.4,294.7,67.3z M60.9,43.1v1.3l-2,3.9l-0.1,0.2c-0.1,0.2-0.2,0.4-0.3,0.7l-0.2-3.4C59.2,44.8,60,44,60.9,43.1z
		"/>
	<path d="M60.9,43.1v1.3l-2,3.9l-0.1,0.2c-0.1,0.2-0.2,0.4-0.3,0.7l-0.2-3.4C59.2,44.8,60,44,60.9,43.1z"/>
	<g>
		<g>
			<path class="st0" d="M31.9,87.1c0.8,0.2,1.4,0.4,2,0.8c0.6,0.3,1.1,0.8,1.6,1.6c0.5,0.7,0.8,1.5,1.1,2.6c0.2,1.1,0.4,2.5,0.4,4.2
				V108c0,2.5-0.2,4.5-0.5,6c-0.3,1.5-0.9,2.7-1.8,3.5c-0.8,0.8-2,1.3-3.5,1.6c-1.5,0.2-3.5,0.4-5.9,0.4H13.7V63.7h11.6
				c2.4,0,4.4,0.1,5.9,0.4c1.5,0.2,2.7,0.8,3.5,1.6c0.9,0.8,1.5,2,1.8,3.5c0.3,1.5,0.5,3.4,0.5,5.9v4.2c0,1.5-0.2,2.7-0.6,3.6
				c-0.3,0.9-0.8,1.7-1.3,2.3c-0.5,0.6-1,1-1.6,1.3c-0.6,0.3-1.1,0.4-1.6,0.5V87.1z M21.8,112.5h3.5c0.8,0,1.3,0,1.8-0.1
				c0.5-0.1,0.8-0.4,1.1-0.6c0.2-0.3,0.4-0.8,0.5-1.3c0.1-0.6,0.1-1.4,0.1-2.3V94.4c0-1.6-0.2-2.6-0.6-3.2c-0.4-0.6-1.3-0.9-2.7-0.9
				h-3.7V112.5z M21.8,83.9h3.7c1.3,0,2.2-0.3,2.6-0.8c0.4-0.5,0.6-1.5,0.6-2.8v-5.2c0-0.8,0-1.6-0.1-2.1c0-0.6-0.2-1-0.4-1.3
				c-0.2-0.3-0.6-0.5-1.1-0.6c-0.5-0.1-1.1-0.2-1.8-0.2h-3.5V83.9z"/>
			<path class="st0" d="M56.6,119.5V107h-6.8v12.4h-7.9V74.7c0-2.5,0.1-4.6,0.4-6.1c0.3-1.6,0.9-2.7,1.8-3.5c0.8-0.8,2-1.4,3.4-1.6
				c1.5-0.3,3.3-0.4,5.6-0.4c2.4,0,4.3,0.1,5.8,0.4c1.6,0.3,2.8,0.8,3.6,1.7c0.9,0.8,1.5,2,1.8,3.5c0.3,1.5,0.5,3.5,0.5,6.1v44.8
				H56.6z M53.2,70.3c-0.7,0-1.3,0.1-1.8,0.2c-0.4,0.1-0.8,0.3-1.1,0.6c-0.2,0.3-0.4,0.7-0.5,1.3c0,0.6-0.1,1.3-0.1,2.3v25.7h6.8
				V74.7c0-0.9,0-1.7-0.1-2.3c-0.1-0.6-0.3-1.1-0.5-1.3c-0.2-0.3-0.6-0.5-1.1-0.6C54.5,70.3,53.9,70.3,53.2,70.3z"/>
			<path class="st0" d="M78.6,119.5h-8.1V63.7h11.6c2.4,0,4.4,0.1,5.9,0.4c1.5,0.2,2.7,0.8,3.5,1.6c0.9,0.8,1.5,2,1.8,3.5
				c0.3,1.5,0.5,3.4,0.5,5.9v5.9c0,1.5-0.2,2.7-0.5,3.6c-0.3,0.9-0.7,1.6-1.2,2.2c-0.5,0.6-1,1-1.6,1.3c-0.6,0.2-1.1,0.4-1.7,0.6
				v0.3c0.8,0.2,1.4,0.4,2,0.8c0.6,0.3,1.1,0.8,1.6,1.4c0.5,0.6,0.8,1.4,1.1,2.4c0.2,1,0.4,2.3,0.4,3.8v22.2h-8.2V96
				c0-1.5-0.2-2.5-0.6-3.1c-0.4-0.6-1.3-0.9-2.7-0.9h-3.7V119.5z M78.6,85.5h3.7c1.3,0,2.2-0.3,2.6-0.8c0.4-0.5,0.6-1.5,0.6-2.8
				v-6.8c0-0.9,0-1.6-0.1-2.1c0-0.6-0.2-1-0.4-1.3c-0.2-0.3-0.6-0.5-1.1-0.6c-0.5-0.1-1.1-0.2-1.8-0.2h-3.5V85.5z"/>
			<path class="st0" d="M117.6,87.1c0.8,0.2,1.4,0.4,2,0.8c0.6,0.3,1.1,0.8,1.6,1.6c0.5,0.7,0.8,1.5,1.1,2.6
				c0.2,1.1,0.4,2.5,0.4,4.2V108c0,2.5-0.2,4.5-0.5,6c-0.3,1.5-0.9,2.7-1.8,3.5c-0.8,0.8-2,1.3-3.5,1.6c-1.5,0.2-3.5,0.4-5.9,0.4
				H99.4V63.7H111c2.4,0,4.4,0.1,5.9,0.4c1.5,0.2,2.7,0.8,3.5,1.6c0.9,0.8,1.5,2,1.8,3.5c0.3,1.5,0.5,3.4,0.5,5.9v4.2
				c0,1.5-0.2,2.7-0.6,3.6c-0.3,0.9-0.8,1.7-1.3,2.3c-0.5,0.6-1,1-1.6,1.3c-0.6,0.3-1.1,0.4-1.6,0.5V87.1z M107.5,112.5h3.5
				c0.8,0,1.3,0,1.8-0.1c0.5-0.1,0.8-0.4,1.1-0.6c0.2-0.3,0.4-0.8,0.5-1.3c0.1-0.6,0.1-1.4,0.1-2.3V94.4c0-1.6-0.2-2.6-0.6-3.2
				c-0.4-0.6-1.3-0.9-2.7-0.9h-3.7V112.5z M107.5,83.9h3.7c1.3,0,2.2-0.3,2.6-0.8s0.6-1.5,0.6-2.8v-5.2c0-0.8,0-1.6-0.1-2.1
				c0-0.6-0.2-1-0.4-1.3c-0.2-0.3-0.6-0.5-1.1-0.6c-0.5-0.1-1.1-0.2-1.8-0.2h-3.5V83.9z"/>
			<path class="st0" d="M144,119.5h-16V63.7h15.9v6.7h-7.8v8.1h7.6v6.4h-7.6v27.5h7.8V119.5z"/>
			<path class="st0" d="M156.8,119.5h-8.1V63.7h11.6c2.4,0,4.4,0.1,5.9,0.4c1.5,0.2,2.7,0.8,3.5,1.6c0.9,0.8,1.5,2,1.8,3.5
				c0.3,1.5,0.5,3.4,0.5,5.9v5.9c0,1.5-0.2,2.7-0.5,3.6c-0.3,0.9-0.7,1.6-1.2,2.2c-0.5,0.6-1,1-1.6,1.3c-0.6,0.2-1.1,0.4-1.7,0.6
				v0.3c0.8,0.2,1.4,0.4,2,0.8c0.6,0.3,1.1,0.8,1.6,1.4c0.5,0.6,0.8,1.4,1.1,2.4c0.2,1,0.4,2.3,0.4,3.8v22.2h-8.2V96
				c0-1.5-0.2-2.5-0.6-3.1c-0.4-0.6-1.3-0.9-2.7-0.9h-3.7V119.5z M156.8,85.5h3.7c1.3,0,2.2-0.3,2.6-0.8c0.4-0.5,0.6-1.5,0.6-2.8
				v-6.8c0-0.9,0-1.6-0.1-2.1c0-0.6-0.2-1-0.4-1.3c-0.2-0.3-0.6-0.5-1.1-0.6c-0.5-0.1-1.1-0.2-1.8-0.2h-3.5V85.5z"/>
			<path class="st0" d="M191.9,81.8v-6.9c0-1,0-1.8-0.1-2.4c0-0.6-0.2-1.1-0.4-1.3c-0.2-0.3-0.6-0.5-1.1-0.6
				c-0.5-0.1-1.1-0.2-1.8-0.2c-0.8,0-1.4,0.1-1.9,0.2c-0.4,0.1-0.8,0.3-1,0.6c-0.2,0.3-0.4,0.7-0.5,1.3c0,0.6-0.1,1.4-0.1,2.4v5.5
				c0,1.1,0.1,2,0.4,2.5c0.2,0.5,0.8,1.1,1.8,1.6c0.8,0.5,1.9,1.1,3.2,1.8c1.4,0.7,2.8,1.5,4.4,2.5c1.2,0.8,2.1,1.4,2.8,2
				c0.8,0.6,1.3,1.3,1.6,2c0.4,0.8,0.6,1.6,0.7,2.7c0.1,1,0.2,2.3,0.2,3.9v9c0,2.6-0.2,4.7-0.5,6.2c-0.3,1.6-0.8,2.8-1.7,3.6
				c-0.8,0.8-2,1.3-3.5,1.6c-1.5,0.3-3.5,0.4-5.9,0.4c-2.3,0-4.2-0.1-5.6-0.4c-1.5-0.2-2.6-0.8-3.5-1.6c-0.8-0.8-1.4-2-1.8-3.5
				c-0.3-1.6-0.5-3.6-0.5-6.3V97.3h7.9v11.1c0,1,0,1.8,0.1,2.4c0.1,0.6,0.3,1,0.5,1.3c0.2,0.3,0.6,0.6,1,0.7
				c0.5,0.1,1.1,0.1,1.8,0.1c1.5,0,2.4-0.3,2.8-0.8c0.4-0.6,0.6-1.8,0.6-3.7V100c0-1.5-0.1-2.6-0.3-3.2c-0.2-0.7-0.7-1.3-1.6-1.9
				c-0.5-0.3-1.1-0.7-1.8-1.1c-0.7-0.4-1.5-0.8-2.3-1.3c-0.8-0.5-1.6-0.9-2.5-1.4c-0.8-0.5-1.5-0.9-2.2-1.3c-1-0.7-1.8-1.3-2.4-1.8
				c-0.6-0.6-1-1.3-1.3-2c-0.3-0.7-0.5-1.5-0.6-2.4c-0.1-0.9-0.1-2-0.1-3.3v-5.4c0-2.6,0.1-4.7,0.4-6.2c0.3-1.6,0.9-2.8,1.7-3.6
				c0.8-0.8,2-1.4,3.5-1.6c1.5-0.3,3.5-0.4,5.9-0.4c2.4,0,4.3,0.1,5.8,0.4c1.5,0.2,2.7,0.8,3.5,1.6c0.8,0.8,1.4,2,1.7,3.6
				c0.3,1.6,0.5,3.6,0.5,6.2v6.9H191.9z"/>
			<path class="st0" d="M228.8,119.5h-8.2V89h-7.1v30.5h-8.1V63.7h8.1v18.4h7.1V63.7h8.2V119.5z"/>
			<path class="st0" d="M257.5,108.4c0,2.6-0.2,4.7-0.5,6.2c-0.3,1.6-0.9,2.8-1.8,3.6c-0.8,0.8-2,1.3-3.5,1.6
				c-1.5,0.3-3.5,0.4-5.9,0.4c-2.4,0-4.4-0.1-5.9-0.4c-1.5-0.2-2.7-0.8-3.5-1.6c-0.8-0.8-1.4-2-1.8-3.6c-0.3-1.6-0.4-3.6-0.4-6.2
				V74.7c0-2.6,0.1-4.6,0.4-6.1c0.3-1.6,0.9-2.7,1.8-3.5c0.8-0.8,2-1.4,3.5-1.6c1.5-0.3,3.5-0.4,5.9-0.4c2.4,0,4.4,0.1,5.9,0.4
				c1.5,0.2,2.7,0.8,3.5,1.6c0.9,0.8,1.5,2,1.8,3.5c0.3,1.5,0.5,3.6,0.5,6.1V108.4z M249.3,74.7c0-0.9,0-1.7-0.1-2.3
				c0-0.6-0.2-1.1-0.5-1.3c-0.2-0.3-0.6-0.5-1.1-0.6c-0.4-0.1-1-0.2-1.7-0.2c-1.5,0-2.5,0.3-2.9,0.8c-0.4,0.6-0.6,1.8-0.6,3.6v33.7
				c0,1,0,1.8,0.1,2.4c0.1,0.6,0.3,1,0.5,1.3c0.3,0.3,0.6,0.6,1.1,0.7c0.5,0.1,1.1,0.1,1.8,0.1c0.8,0,1.4,0,1.8-0.1
				c0.5-0.1,0.8-0.4,1.1-0.7c0.3-0.4,0.4-0.8,0.5-1.4c0.1-0.6,0.1-1.4,0.1-2.3V74.7z"/>
			<path class="st0" d="M271.2,98.4v21.1h-8.1V63.7h11.6c2.4,0,4.4,0.1,5.9,0.4c1.5,0.2,2.7,0.8,3.5,1.6c0.9,0.8,1.5,2,1.8,3.5
				c0.3,1.5,0.5,3.4,0.5,5.9V87c0,2.5-0.2,4.5-0.5,6c-0.3,1.5-0.9,2.7-1.8,3.5c-0.8,0.8-2,1.3-3.5,1.6c-1.5,0.2-3.4,0.4-5.8,0.4
				H271.2z M271.2,70.7v21h3.5c0.7,0,1.3,0,1.8-0.1c0.5-0.1,0.8-0.4,1.1-0.7c0.2-0.3,0.4-0.8,0.5-1.3c0.1-0.6,0.1-1.4,0.1-2.3V75.1
				c0-0.9,0-1.6-0.1-2.2c0-0.6-0.2-1-0.4-1.3c-0.2-0.3-0.6-0.5-1.1-0.6c-0.4-0.1-1-0.2-1.8-0.2H271.2z"/>
		</g>
		<g>
			
				<image style="overflow:visible;opacity:0.5;" width="232" height="95" xlink:href="F5E1D1C4.png"  transform="matrix(1 0 0 1 27.9991 -2.0008)">
			</image>
			<g>
				<g>
					<path class="st0" d="M79.6,74.3L79.2,74c-0.5-0.9-0.8-1.8-0.8-2.8c0-1.7,0.6-3.3,1.9-4.8c1.3-1.5,2.8-2.9,4.7-4.2
						c1.9-1.3,3.7-2.6,5.6-3.7c1.9-1.2,3.4-2.3,4.7-3.3c1.3-1,1.9-2,1.9-2.9c0-0.8-0.5-1.4-1.6-1.8c-1-0.4-1.8-0.7-2.5-0.9l-0.4-0.8
						v-0.2h-0.4l0.1,0.1v0.1c-0.7,0.2-1.6,0.3-2.5,0.3l-1.1-0.4h-0.2v0.6l-0.6-0.1l-0.4-0.4l-0.3,0.4v0.1l-0.1-0.1
						c-0.1-0.1-0.4-0.1-0.9-0.1c-0.3,0-0.7,0-1.1,0.1c-0.4,0.1-0.7,0.1-1.1,0.1l0.1-0.7l-0.3,0.1l-1.1-0.2l0.1,0.4h-0.1v-0.1
						l-0.6-0.2l-0.2,0.2l-1-1.3H81l-0.1-0.2c-0.1,0-0.3-0.1-0.6-0.2c-0.3-0.1-0.5-0.2-0.7-0.2c-0.4,0-0.7,0.1-1.1,0.4
						c-0.3,0.2-0.6,0.4-0.8,0.6l-0.1,0.9L76.9,49c-0.1,0.4-0.2,0.8-0.3,1.2c-0.1,0.4-0.3,0.9-0.3,1.3c-0.6,0.5-1.1,1.6-1.6,3.3
						c-0.4,1.6-0.7,3.5-1,5.5c-0.3,1.9-0.5,3.8-0.7,5.6c-0.1,1.8-0.1,3.1-0.1,4l0.7,1.6h0.1l0.8,1v0.1l-0.2,0.2l-2.6-0.3
						c-0.9-0.6-1.8-1.6-2.6-3c-0.7-1.4-1.2-2.6-1.5-3.6l-0.3-0.2v-0.7c-0.7-1-1-1.9-1-2.8v-6.1v-0.1l0.3-0.7c-0.1-1,0-2.1,0.6-3.3
						c0.6-1.2,1.2-2.4,1.8-3.6c0.7-1.3,1-2.4,1-3.4c0.6-0.6,1-1.2,1.3-1.9c0.3-0.7,0.6-1.5,0.9-2.2c1.5-3.1,3.3-6.1,5.4-8.9
						c2.2-2.8,4.3-5.5,6.4-8.3v-0.3c-0.7,0-2.2,0.2-4.5,0.6c-2.2,0.4-4.7,0.9-7.5,1.5c-2.8,0.6-5.5,1.3-8.2,2.1
						c-2.6,0.7-4.8,1.6-6.6,2.5c-1.8,0.8-2.7,1.6-2.8,2.5l0.8,0.3c0.5-0.3,1.1-0.4,1.7-0.4c0.6-0.1,1.2-0.1,1.7-0.1l1.6-0.6L60,32.1
						c-1.6,1.1-3.1,2.3-4.5,3.6c-1.3,1.3-2.7,2.6-3.9,4l-0.8,0.2l-0.3,0.8l-1.3,0.2L49,41.1l0.1,2l-3.7-1.9
						c-0.3-0.8-0.7-1.6-1.3-2.2c-0.5-0.7-0.8-1.5-0.8-2.4c1.9-2.3,4-4.3,6.4-5.8c2.5-1.6,5-3,7.6-4.2c2.7-1.2,5.3-2.4,7.9-3.6v0.2
						c0.4,0.1,0.9,0.2,1.3,0.2c0.6,0,1.2-0.1,1.7-0.3c0.6-0.3,1.2-0.5,1.8-0.7v0.2c0.7-0.1,1.5-0.3,2.1-0.4c0.7-0.2,1.3-0.5,2-0.8
						v0.2l1.7-0.6V21l0.7,0.1L76.3,21c0-0.1,0.1-0.2,0.2-0.1c0.1,0.1,0.2,0.1,0.2,0.2l0.6-0.1l0.3-0.6l0.6,0.2l-0.2-0.2l0.2,0.1
						l0.1,0.1H80l0.9-0.3L81,20l3,0.1l0.1-0.1l1-0.4c0.5,0,1,0,1.5,0c0.5-0.1,1-0.1,1.6-0.1c0.6-0.6,1.1-1.3,1.5-2.1
						c0.4-0.8,1.2-1.2,2.1-1.2c1,0,1.9,0.2,2.7,0.7c0.8,0.4,1.7,0.7,2.7,0.7c0.2,0.4,0.8,0.9,1.8,1.3c1,0.4,2.2,0.7,3.6,1
						c1.3,0.2,2.6,0.4,3.8,0.6c1.2,0.1,2,0.1,2.5,0.1l4.8,1.5l0.4-0.1c0.7,0,1.6,0.4,2.8,1.3c1.2,0.9,2.4,1.9,3.5,2.9
						c1.2,1,2.1,1.8,2.6,2.4c0.1,0.5,0.3,1.1,0.4,1.7c0.1,0.6,0.4,1.2,0.8,1.7c-0.3,2.8-0.9,5-1.7,6.4c-0.7,1.3-1.9,2.3-3.4,2.9
						c-1.4,0.6-3.4,1.2-5.8,1.9l-1.5-0.1v0.6h-0.2l-0.4-0.4l-4.5,1.3v-0.7c-1.3,1-2.4,1.5-3.1,1.5c-0.7,0-1.8,0.1-3.4,0.2v-0.2h-0.8
						l-1.2,0.6l-0.9-0.3l-1.1,0.1L96,46.1c1.6,0.8,2.8,1.6,3.8,2.2c1,0.6,1.7,1.4,2.1,2.5c0.5,1,0.8,2.4,0.8,4.4
						c0,0.6-0.2,1.2-0.7,1.7c-0.4,0.5-0.6,1.1-0.8,1.7L98.8,61l-0.2-0.1c-1.4,0.8-2.9,1.4-4.4,1.7c-1.4,0.3-2.9,0.6-4.4,0.8
						l-0.3-0.7c-1.1,0.4-2.4,1-3.8,1.9c-1.3,0.9-2.5,1.9-3.6,3.1c-1,1.2-1.5,2.5-1.5,3.9c-0.4,0.3-0.6,0.7-0.8,1.1
						C79.7,73.3,79.6,73.8,79.6,74.3z M80.4,45.3c0.9,0,2-0.2,3.3-0.7c1.3-0.4,2.5-0.8,3.4-1.1l0.1-0.3l3-0.7v-0.1h0.4l0.3-0.4
						c1-0.1,2.1-0.3,3.1-0.6c1-0.2,2.1-0.3,3-0.3c1.5-0.7,3.1-1,4.7-1c0.8-0.4,1.7-0.6,2.6-0.8c1-0.2,1.9-0.4,2.7-0.7l0.2-0.2
						c1.1-0.4,2.2-0.7,3.3-1.1c1.1-0.4,2.2-0.9,3.3-1.5l-0.2-0.1l3.6-3.6l0.1-2c-0.3-0.7-0.7-1.4-1.2-2.1c-0.4-0.8-1.1-1.3-2-1.3
						l0.1,0.1c-1.4-0.5-2.8-1.2-4.3-2c-1.4-0.9-3-1.4-4.6-1.5v0.1H105c-0.4-0.2-0.8-0.3-1.1-0.3c-0.3,0-0.6,0-0.9,0.1
						c-0.3,0.1-0.6,0.1-1,0.1l-1-0.7h-1.3c-0.8,0-1.6,0-2.5,0c-0.7-0.1-1.5-0.1-2.4-0.2c-1,0.9-2.2,2.2-3.7,3.8
						c-1.4,1.6-2.8,3.2-4.2,4.9c-1.3,1.6-2.2,3.1-2.8,4.4v1.1c-1,0.4-1.9,1.4-2.5,2.9c-0.5,1.5-1.2,2.7-1.9,3.6l-0.1,0.8l0.2,0.6
						l-0.1,0.1L80.4,45.3z M62,31.6l0.3-0.8l0.2,0.2l0.1,0.4l-0.1,0.1H62z"/>
					<path class="st0" d="M114.3,69.2c-0.7,0-1.5-0.4-2.5-1.3c-0.9-0.9-1.6-1.6-2.2-2c-0.2-1-0.4-1.8-0.8-2.6
						c-0.4-0.8-0.6-1.7-0.6-2.6c0-1.3,0.5-2.9,1.5-4.7c1-1.9,2.4-3.7,3.9-5.5c1.6-1.8,3.3-3.3,4.9-4.5c1.7-1.2,3.3-1.8,4.6-1.8V44
						c1,0.2,2,0.9,2.9,2c1,1.1,1.5,2.2,1.5,3.1c0,0.9-0.6,1.8-1.7,2.8c-1,0.9-2.4,1.8-3.9,2.6c-1.5,0.7-3,1.3-4.5,1.8
						c-1.4,0.4-2.5,0.7-3.4,0.7v0.2c-0.5,0.8-1,1.9-1.6,3.1c-0.4,1.2-0.7,2.3-0.7,3.4c0,0.4,0.1,0.8,0.3,1.2c0.5,0.4,1.2,0.6,2,0.6
						c0.8-0.1,1.5-0.1,2,0l0.1,0.1l0.3-0.6c1-0.1,1.9-0.3,2.8-0.7v-0.7h0.7v-0.3l0.4,0.1c0.4-0.1,0.6-0.3,0.8-0.4
						c0.2-0.2,0.5-0.4,0.8-0.6l0.7,0.3v-0.1l2-1.9h0.1l0.3,0.2v-0.1c1-0.9,2-1.7,3.1-2.5c1.1-0.7,1.9-1.7,2.5-2.9l1.2-0.9l0.2,0.2
						c0,0.5-0.2,1-0.6,1.5c-0.4,0.4-0.8,0.7-1.3,0.9c-0.6,1.4-1.5,2.6-2.7,3.6c-1.1,1-2.3,2-3.5,3H124l-0.1,0.6
						c-1.4,1-2.9,2-4.5,3.1C117.9,68.7,116.2,69.2,114.3,69.2z M116.4,54.8h0.2v-0.2c0.5-0.1,1.4-0.6,2.7-1.3
						c1.3-0.7,2.6-1.5,3.8-2.4c1.2-0.9,1.8-1.5,1.9-1.9h0.1l-0.1-0.6l0.1-0.6c-0.1,0-0.2,0-0.4,0c-0.2-0.1-0.4-0.1-0.6-0.1
						c-1,0.7-1.9,1.3-2.9,1.9c-1,0.6-1.9,1.2-2.9,1.8h-0.2l-0.1,0.9c-0.4,0.3-0.8,0.7-1,1.1C116.8,53.9,116.6,54.3,116.4,54.8z
						 M133.5,54.5l-0.7-0.2l-0.1-0.7l1.1-0.3l0.1,0.3L133.5,54.5z"/>
					<path class="st0" d="M144.4,67.3c-1.1,0-2-0.4-2.6-1.3l-2.6-1.2c-0.3-0.7-0.4-1.5-0.4-2.5c0-1.6,0.4-3.3,1.1-5.1
						c0.8-1.9,1.6-3.4,2.4-4.7c-0.5-0.3-1-0.7-1.3-1.1c-0.4-0.4-0.7-0.9-1.1-1.3l-0.3-0.2c-0.3,0.3-0.6,0.6-1,0.8
						c-0.4,0.2-0.7,0.4-1.1,0.4c-0.7,0.7-1.6,1.8-2.9,3.4c-1.3,1.5-2.7,3.1-4.2,4.7c-1.5,1.6-3,3-4.4,4.2c-1.3,1.2-2.4,1.8-3.3,1.8
						l-0.1-0.2c0.1-0.4,0.4-0.9,1-1.5c0.7-0.6,1.2-1,1.5-1.3c0.1-0.6,0.5-1.1,1.1-1.6c0.6-0.4,1.2-0.8,1.7-1h0.1l0.7-1l0.6-0.3
						L129,58l0.8-0.6c0.2-0.4,0.4-0.7,0.7-1c0.3-0.3,0.6-0.6,0.8-0.9v-0.2c1.6-1.3,3.1-2.7,4.5-4.2c1.4-1.6,2.9-3.1,4.4-4.6l0.1-0.1
						l-0.1-0.7c0-0.8,0.2-1.7,0.6-2.7c0.4-1,0.9-1.8,1.5-2.4c0.5-0.7,1.2-1.5,1.9-2.4c0.8-0.9,1.7-1.3,2.7-1.3
						c0.7,0,1.2,0.4,1.3,1.1c0.1,0.7,0.2,1.3,0.2,1.8c0,1.9-0.5,3.3-1.5,4.4c-1,1-2,1.7-3,2.2c-1,0.5-1.5,1.1-1.5,1.7l1.8,0.8
						l0.7-0.6l0.1,0.1h0.2c0.4-0.2,0.9-0.4,1.3-0.6c0.4-0.2,0.9-0.3,1.5-0.3c0.4,0,0.9,0.1,1.3,0.4c0.4,0.2,0.8,0.4,1.1,0.7l0.1,1
						c0.1,0.7-0.2,1.4-0.9,2.2c-0.6,0.7-1.3,1.6-2.2,2.7c-0.9,1-1.7,2.2-2.4,3.6c-0.7,1.3-1,2.9-1,4.7c0,0.4,0.1,0.9,0.2,1.5
						c0.2,0.4,0.6,0.7,1.2,0.7c0.9,0,1.9-0.3,3-1c1.1-0.7,2.2-1.4,3.4-2.2c1.1-0.9,2.1-1.6,2.8-2l0.4,0.6c0,0.5-0.4,1.2-1.3,1.9
						c-0.9,0.7-2,1.5-3.3,2.2c-1.3,0.7-2.5,1.4-3.7,1.9C145.8,67,144.9,67.3,144.4,67.3z"/>
					<path class="st0" d="M169.5,40.4c-0.2,0-0.8-0.1-1.8-0.2c-0.9-0.2-1.3-0.5-1.3-0.8c0-1.1,0.6-1.9,1.7-2.5
						c1.2-0.5,2.2-1,2.9-1.6h0.2c1-0.8,2.3-1.4,3.7-1.7c1.5-0.3,2.9-0.5,4.2-0.6l-0.1,0.1c-1.4,0.4-2.7,1.3-3.8,2.5
						c-1.1,1.1-2.2,2.2-3.1,3.3C171.1,39.9,170.2,40.4,169.5,40.4z M155,71.6l-1.8-2.6c-0.1-0.5-0.2-1-0.3-1.5
						c-0.1-0.5-0.2-1-0.2-1.6c0-0.7,0-1.3,0.1-2c0.1-0.7,0.2-1.3,0.2-2l0.8-1.9l-0.1-0.1c0.4-0.9,0.7-2.1,1.1-3.5
						c0.4-1.4,0.8-2.8,1.3-4.3c0.6-1.5,1.3-2.7,2.1-3.7c0.8-1,1.8-1.6,3-1.6c0.8,0,1.8,0.3,2.8,0.9c1,0.6,1.6,1.4,1.6,2.4
						c0,0.4-0.3,1-0.9,2c-0.5,1-1.2,2.1-1.9,3.3c-0.7,1.1-1.5,2.1-2.2,3c-0.7,0.8-1.2,1.3-1.5,1.5c-0.7,1.2-1.6,2.6-2.8,4.2
						c-1.2,1.6-1.8,3-1.8,4.4c0,0.5,0.1,1,0.2,1.5c0.2,0.4,0.3,0.9,0.3,1.5L155,71.6z"/>
					<path class="st0" d="M165.5,70.7c-0.9-0.7-1.3-1.6-1.3-2.7c0-0.8,0.1-1.6,0.2-2.4c0.2-0.8,0.4-1.6,0.4-2.5h0.1
						c2.4-6.7,5.5-12.7,9.2-18.2c3.7-5.5,8-10.9,12.8-15.9c-0.1-0.5,0.3-1.3,1.1-2.4c0.9-1,1.9-2.1,2.9-3.1c1.1-1,1.9-1.7,2.4-2
						c0.4,0,1.1,0.2,2,0.6c0.9,0.4,1.7,0.8,2.5,1.3c0.7,0.4,1.1,0.9,1.1,1.5c0,0.5-0.4,1.5-1.2,2.8c-0.8,1.3-1.8,2.5-2.8,3.7
						c-1,1.1-1.8,1.7-2.5,1.8v-1.2l-0.7,0.3v-0.1l-0.7-0.6c-0.4,0.5-0.9,1-1.5,1.5c-0.5,0.4-1.2,0.6-2,0.6v0.2l-0.4,0.8h-0.2v0.6
						h-0.6c-1,0-1.9,0.4-2.6,1.1v1l0.3,0.1v-0.1l0.6-0.4l0.1,0.1c-0.7,1.9-1.8,3.7-3.3,5.4c-1.3,1.7-2.7,3.4-4.2,5.2
						c-1.3,1.7-2.4,3.6-3.3,5.6c-0.5,0.4-1.2,1.1-2,2.1c-0.7,1-1.4,2-2,3.1c-0.6,1-0.9,1.9-0.9,2.5c0,0.3,0,0.6,0,0.8
						c0,0.2,0,0.5,0.1,0.8v-0.1c1.9-1.6,3.3-3.1,4-4.5c0.7-1.5,1.3-2.8,1.6-3.8c0.4-1.1,0.9-1.9,1.6-2.5c0.7-0.6,1.9-0.8,3.8-0.6
						v-0.1c0.7-0.7,1.6-1.5,2.7-2.5c1-1,2.1-1.8,3.3-2.6c1.2-0.7,2.3-1.1,3.3-1.1c0.1,0,0.3,0.1,0.6,0.2c0.3,0.1,0.5,0.1,0.6,0.2
						l0.8,1.1c0,0.7-0.3,1.3-0.8,2c-0.5,0.6-1,1.1-1.3,1.6h-0.2v0.4l-6.3,5.3c-0.1,0.3-0.2,0.6-0.2,0.9c0,0.7,0.2,1.5,0.6,2.6
						c0.4,1,0.9,1.9,1.6,2.7c0.7,0.7,1.5,1.1,2.4,1.1h1.3l1.1-0.9v-0.1l0.3,0.1l1.5-0.8l0.1,0.1c-0.2,0.7-0.8,1.6-1.8,2.7
						c-1,1-2.1,2-3.3,2.8c-1.1,0.7-2.1,1.1-2.9,1.1c-1.5,0-2.7-0.5-3.5-1.5c-0.8-1-1.5-2.1-1.9-3.4c-0.4-1.3-0.7-2.5-1-3.5
						c-0.3-1-0.7-1.5-1.1-1.5c-0.6,0-1.2,0.4-1.8,1.2c-0.6,0.8-1,1.5-1.2,1.9c-0.4,0.3-0.7,0.6-1.1,1c-0.4,0.4-0.7,0.7-1.1,1.1h-0.2
						l-1,1l0.2,0.2l-0.9,1.1l0.3,0.6h-0.3l-0.7,1.1V68h-0.1l-0.6-0.4v0.3h-0.1l0.4,0.4l-0.8,0.6l-1.2,1.1l-0.1,0.7H165.5z
						 M182.2,54.8h0.2c0.5-0.4,1.2-0.9,2-1.6c0.8-0.7,1.6-1.5,2.2-2.4c0.7-0.8,1.1-1.5,1.1-2.1l-0.3-0.8l-0.1,0.2
						c-0.4,0.1-1,0.5-1.9,1c-0.8,0.4-1.3,0.9-1.3,1.5l-0.7-0.3l-0.2,0.6l-0.1-0.1c-0.7,0.4-1,1.1-1,2c0,0.4,0,0.7,0,1
						C182.2,54.1,182.2,54.5,182.2,54.8z"/>
					<path class="st0" d="M197,31.7l-0.3-0.9c0.4-0.4,0.7-0.9,1.1-1.2c0.4-0.4,0.9-0.8,1.5-1.1l0.6-0.1c1.2-1,2.3-2.4,3.3-4.2
						c1-1.8,2.1-3.1,3.3-3.8l0.1-1.1c0.1-0.4,0.3-0.7,0.6-0.9c0.3-0.2,0.6-0.4,0.9-0.6c-0.1-0.4-0.3-0.7-0.8-0.9
						c-0.4-0.2-0.7-0.4-1-0.4c0-0.5,0.1-1.2,0.4-2.1c0.4-0.9,0.8-1.7,1.3-2.4c0.6-0.7,1.2-1.1,1.8-1.1c0.6,0,1.5,0.1,2.6,0.2
						c1.1,0.1,2.2,0.4,3.3,0.7c1.1,0.3,1.8,0.7,2.1,1.2c-0.4,1.2-1.1,2.3-1.9,3.4c-0.7,1-1.8,1.8-3,2.4l-0.7,1.1l-0.9,0.6l-0.4,0.6
						l-0.4-0.1l-1.3,0.7l-0.2,0.3l0.4,0.3v0.3c0,0.5-0.3,0.8-0.9,0.9c-0.5,0-1,0-1.3-0.1l-1,0.6l0.3,0.7l-0.7,0.2l-0.4-0.4h-0.6
						l-0.8,0.2l1,1c-0.2,1-0.7,1.8-1.3,2.4l-1.1,0.4l-0.8-0.3l-0.2,0.8l-0.8,0.1l-0.3-0.6l-0.2,0.4l0.6,0.9v1.1l-0.6,0.1l-2-0.8
						L197,31.7z"/>
					<path class="st0" d="M211.6,75.1c-0.4-0.7-0.7-1.3-0.7-2c0-0.5,0.1-1,0.3-1.5c0.1-0.4,0.3-0.9,0.6-1.2h0.1l-0.1-0.1
						c0.5-0.7,1.3-1.7,2.5-2.9c1.2-1.2,2.5-2.3,3.8-3.3c1.3-1,2.4-1.5,3.3-1.6L222,62c0.4-0.6,0.9-1.2,1.7-1.7
						c0.8-0.6,1.5-1.1,2.1-1.5l0.7,0.1l-0.1-0.4l0.3-0.2l-0.3-1.1c-0.7-0.3-1.7-0.7-2.9-1.1c-1.1-0.4-2.2-1-3.1-1.7
						c-0.9-0.7-1.3-1.6-1.3-2.6c0-0.7,0.7-1.8,2-3.1c1.3-1.3,3-2.7,4.8-4c1.9-1.4,3.8-2.6,5.5-3.6c1.8-1,3.1-1.5,3.8-1.5
						c1-0.4,1.7-1,2.1-1.8c0.4-0.8,0.9-1.6,1.2-2.2c0.4-0.7,1-1.1,1.8-1.1c1,0,1.8,0.5,2.5,1.5c0.7,1,1.3,1.8,1.6,2.6
						c-0.1,0.3-0.3,0.6-0.7,0.8c-0.3,0.2-0.5,0.5-0.7,0.9c-0.9,0.7-1.6,1.7-2.2,2.8c-0.5,1-1,2.1-1.6,3.1l-2,1.1l-0.3-0.4h-0.1
						c-0.3,0.4-0.6,0.7-0.9,1c-0.3,0.3-0.5,0.6-0.7,1c-0.3,0.3-0.6,0.7-0.9,1.3c-0.2,0.5-0.6,0.8-1,0.9l-0.1-0.2
						c0.4-1.2,0.7-2.4,1.1-3.6c0.4-1.3,0.8-2.5,1.2-3.7l0.2-0.1l0.2-1.7c-0.7,0-1.5,0.2-2.1,0.6c-0.7,0.4-1.4,0.5-2.2,0.4
						c-0.3,0.2-0.8,0.7-1.6,1.3c-0.7,0.7-1.3,1.3-2,1.8c-0.7,0.5-1.2,0.8-1.6,0.9c-0.4,0.8-1.1,1.6-2,2.4c-0.8,0.7-1.2,1.6-1.2,2.7
						c0,0.4,0.2,0.7,0.7,0.9c0.4,0.1,0.9,0.1,1.2,0.1v0.7l0.2-0.1l1.8,0.4l0.3-0.3c1,0.2,2.2,0.6,3.6,1.1c1.5,0.4,2.8,1.1,3.9,1.9
						c1.2,0.8,1.8,1.9,1.8,3.3c0,0.5-0.1,1-0.3,1.6c-0.2,0.5-0.5,1-0.9,1.6l-1.8,1.8l-2.8-0.2c-0.5,0.4-1.4,0.7-2.7,1
						c-1.3,0.2-2.5,0.4-3.6,0.7c-1,0.2-1.6,0.5-1.6,0.8l-1-0.9c-0.4,0.7-0.9,1-1.7,1c-0.7,0-1.5,0-2.2,0c-0.7,0-1.5,0.4-2.4,1.2
						c-0.8,0.8-1.6,1.7-2.2,2.7c-0.7,1-1.1,1.9-1.2,2.6L211.6,75.1z"/>
				</g>
			</g>
		</g>
	</g>
</g>
</svg>
