<svg width="17" height="12" viewBox="0 0 17 12" fill="none" xmlns="http://www.w3.org/2000/svg">
<path d="M9.88235 3.17647H0.705882C0.518671 3.17647 0.339127 3.1021 0.206748 2.96973C0.0743695 2.83735 0 2.6578 0 2.47059C0 2.28338 0.0743695 2.10384 0.206748 1.97146C0.339127 1.83908 0.518671 1.76471 0.705882 1.76471H9.88235C10.0696 1.76471 10.2491 1.83908 10.3815 1.97146C10.5139 2.10384 10.5882 2.28338 10.5882 2.47059C10.5882 2.6578 10.5139 2.83735 10.3815 2.96973C10.2491 3.1021 10.0696 3.17647 9.88235 3.17647ZM16.2353 3.17647H13.4118C13.2246 3.17647 13.045 3.1021 12.9126 2.96973C12.7802 2.83735 12.7059 2.6578 12.7059 2.47059C12.7059 2.28338 12.7802 2.10384 12.9126 1.97146C13.045 1.83908 13.2246 1.76471 13.4118 1.76471H16.2353C16.4225 1.76471 16.602 1.83908 16.7344 1.97146C16.8668 2.10384 16.9412 2.28338 16.9412 2.47059C16.9412 2.6578 16.8668 2.83735 16.7344 2.96973C16.602 3.1021 16.4225 3.17647 16.2353 3.17647Z" fill="#111224"/>
<path d="M11.6471 4.94118C11.1584 4.94118 10.6808 4.79628 10.2745 4.52481C9.86819 4.25334 9.55152 3.86748 9.36453 3.41604C9.17754 2.9646 9.12861 2.46785 9.22394 1.9886C9.31927 1.50935 9.55457 1.06914 9.90009 0.72362C10.2456 0.378102 10.6858 0.142801 11.1651 0.0474728C11.6443 -0.0478554 12.1411 0.00107046 12.5925 0.188063C13.044 0.375056 13.4298 0.691717 13.7013 1.098C13.9727 1.50429 14.1176 1.98195 14.1176 2.47059C14.1176 3.12583 13.8574 3.75423 13.394 4.21756C12.9307 4.68088 12.3023 4.94118 11.6471 4.94118ZM11.6471 1.41177C11.4376 1.41177 11.2329 1.47386 11.0588 1.59021C10.8847 1.70655 10.749 1.87192 10.6688 2.06539C10.5887 2.25887 10.5677 2.47176 10.6086 2.67716C10.6494 2.88255 10.7503 3.07121 10.8984 3.21929C11.0464 3.36737 11.2351 3.46821 11.4405 3.50907C11.6459 3.54992 11.8588 3.52895 12.0523 3.44881C12.2457 3.36867 12.4111 3.23296 12.5274 3.05884C12.6438 2.88472 12.7059 2.68 12.7059 2.47059C12.7059 2.18977 12.5943 1.92046 12.3958 1.72189C12.1972 1.52332 11.9279 1.41177 11.6471 1.41177ZM16.2353 10.2353H7.05882C6.87161 10.2353 6.69207 10.1609 6.55969 10.0285C6.42731 9.89617 6.35294 9.71662 6.35294 9.52941C6.35294 9.3422 6.42731 9.16265 6.55969 9.03028C6.69207 8.8979 6.87161 8.82353 7.05882 8.82353H16.2353C16.4225 8.82353 16.602 8.8979 16.7344 9.03028C16.8668 9.16265 16.9412 9.3422 16.9412 9.52941C16.9412 9.71662 16.8668 9.89617 16.7344 10.0285C16.602 10.1609 16.4225 10.2353 16.2353 10.2353ZM3.52941 10.2353H0.705882C0.518671 10.2353 0.339127 10.1609 0.206748 10.0285C0.0743695 9.89617 0 9.71662 0 9.52941C0 9.3422 0.0743695 9.16265 0.206748 9.03028C0.339127 8.8979 0.518671 8.82353 0.705882 8.82353H3.52941C3.71662 8.82353 3.89617 8.8979 4.02855 9.03028C4.16092 9.16265 4.23529 9.3422 4.23529 9.52941C4.23529 9.71662 4.16092 9.89617 4.02855 10.0285C3.89617 10.1609 3.71662 10.2353 3.52941 10.2353Z" fill="#111224"/>
<path d="M5.2942 12C4.80556 12 4.3279 11.8551 3.92161 11.5836C3.51533 11.3121 3.19866 10.9263 3.01167 10.4748C2.82468 10.0234 2.77575 9.52666 2.87108 9.04741C2.96641 8.56816 3.20171 8.12794 3.54723 7.78243C3.89275 7.43691 4.33296 7.20161 4.81221 7.10628C5.29146 7.01095 5.78821 7.05988 6.23965 7.24687C6.69109 7.43386 7.07694 7.75053 7.34842 8.15681C7.61989 8.5631 7.76478 9.04076 7.76478 9.5294C7.76478 10.1846 7.50449 10.813 7.04117 11.2764C6.57784 11.7397 5.94944 12 5.2942 12ZM5.2942 8.47057C5.08478 8.47057 4.88007 8.53267 4.70595 8.64902C4.53182 8.76536 4.39611 8.93073 4.31597 9.1242C4.23583 9.31768 4.21486 9.53057 4.25572 9.73596C4.29657 9.94135 4.39742 10.13 4.5455 10.2781C4.69357 10.4262 4.88224 10.527 5.08763 10.5679C5.29302 10.6087 5.50592 10.5878 5.69939 10.5076C5.89287 10.4275 6.05823 10.2918 6.17458 10.1176C6.29092 9.94352 6.35302 9.73881 6.35302 9.5294C6.35302 9.24858 6.24147 8.97926 6.0429 8.7807C5.84433 8.58213 5.57501 8.47057 5.2942 8.47057Z" fill="#111224"/>
</svg>
