<svg width="20" height="17" viewBox="0 0 20 17" fill="none" xmlns="http://www.w3.org/2000/svg">
<path d="M1.25 2.42857H18.75C19.5 2.42857 20 1.94286 20 1.21429C20 0.485714 19.5 0 18.75 0H1.25C0.5 0 0 0.485714 0 1.21429C0 1.94286 0.5 2.42857 1.25 2.42857ZM1.25 9.71429H18.75C19.5 9.71429 20 9.22857 20 8.5C20 7.77143 19.5 7.28571 18.75 7.28571H1.25C0.5 7.28571 0 7.77143 0 8.5C0 9.22857 0.5 9.71429 1.25 9.71429ZM1.25 17H18.75C19.5 17 20 16.5143 20 15.7857C20 15.0571 19.5 14.5714 18.75 14.5714H1.25C0.5 14.5714 0 15.0571 0 15.7857C0 16.5143 0.5 17 1.25 17Z" fill="white"/>
</svg>
