<svg width="20" height="24" viewBox="0 0 20 24" fill="none" xmlns="http://www.w3.org/2000/svg">
<path d="M17.7778 5.71429H15.5556C15.5556 2.56 13.0667 0 10 0C6.93333 0 4.44444 2.56 4.44444 5.71429H2.22222C1 5.71429 0 6.74286 0 8V21.7143C0 22.9714 1 24 2.22222 24H17.7778C19 24 20 22.9714 20 21.7143V8C20 6.74286 19 5.71429 17.7778 5.71429ZM10 2.28571C11.8444 2.28571 13.3333 3.81714 13.3333 5.71429H6.66667C6.66667 3.81714 8.15556 2.28571 10 2.28571ZM17.7778 21.7143H2.22222V8H17.7778V21.7143ZM10 12.5714C8.15556 12.5714 6.66667 11.04 6.66667 9.14286H4.44444C4.44444 12.2971 6.93333 14.8571 10 14.8571C13.0667 14.8571 15.5556 12.2971 15.5556 9.14286H13.3333C13.3333 11.04 11.8444 12.5714 10 12.5714Z" fill="white"/>
</svg>
